<?xml version="1.0" encoding="UTF-8" standalone="no"?>
<svg
   xmlns:dc="http://purl.org/dc/elements/1.1/"
   xmlns:cc="http://creativecommons.org/ns#"
   xmlns:rdf="http://www.w3.org/1999/02/22-rdf-syntax-ns#"
   xmlns:svg="http://www.w3.org/2000/svg"
   xmlns="http://www.w3.org/2000/svg"
   xmlns:sodipodi="http://sodipodi.sourceforge.net/DTD/sodipodi-0.dtd"
   xmlns:inkscape="http://www.inkscape.org/namespaces/inkscape"
   width="140.98512mm"
   height="58.649319mm"
   viewBox="0 0 140.98512 58.649319"
   version="1.1"
   id="svg8"
   inkscape:version="1.0.2 (e86c870879, 2021-01-15)"
   sodipodi:docname="wedge.svg"
   inkscape:export-filename="/home/uphoff/projects/tandem/notebooks/wedge.png"
   inkscape:export-xdpi="150.07399"
   inkscape:export-ydpi="150.07399">
  <defs
     id="defs2" />
  <sodipodi:namedview
     id="base"
     pagecolor="#ffffff"
     bordercolor="#666666"
     borderopacity="1.0"
     inkscape:pageopacity="0.0"
     inkscape:pageshadow="2"
     inkscape:zoom="1.4"
     inkscape:cx="285.66934"
     inkscape:cy="108.00081"
     inkscape:document-units="mm"
     inkscape:current-layer="text106"
     showgrid="false"
     fit-margin-top="0"
     fit-margin-left="0"
     fit-margin-right="0"
     fit-margin-bottom="0"
     inkscape:window-width="1920"
     inkscape:window-height="1043"
     inkscape:window-x="0"
     inkscape:window-y="0"
     inkscape:window-maximized="1"
     inkscape:document-rotation="0" />
  <metadata
     id="metadata5">
    <rdf:RDF>
      <cc:Work
         rdf:about="">
        <dc:format>image/svg+xml</dc:format>
        <dc:type
           rdf:resource="http://purl.org/dc/dcmitype/StillImage" />
        <dc:title />
      </cc:Work>
    </rdf:RDF>
  </metadata>
  <g
     inkscape:label="Ebene 1"
     inkscape:groupmode="layer"
     id="layer1"
     transform="translate(-31.75,-90.085211)">
    <path
       style="fill:none;stroke:#000000;stroke-width:0.26458332px;stroke-linecap:butt;stroke-linejoin:miter;stroke-opacity:1"
       d="M 31.75,96.084841 H 172.73512"
       id="path815"
       inkscape:connector-curvature="0" />
    <path
       style="fill:none;stroke:#000000;stroke-width:0.26458332px;stroke-linecap:butt;stroke-linejoin:miter;stroke-opacity:1"
       d="M 98.651784,95.916664 147.78869,148.64434"
       id="path817"
       inkscape:connector-curvature="0" />
    <path
       style="fill:none;stroke:#000000;stroke-width:0.26458332px;stroke-linecap:butt;stroke-linejoin:miter;stroke-opacity:1"
       d="m 108.0067,105.93303 c 4.18923,-0.0315 9.4179,-4.59871 8.03199,-10.016366"
       id="path819"
       inkscape:connector-curvature="0"
       sodipodi:nodetypes="cc" />
    <g
       aria-label="Ï‰"
       style="font-style:normal;font-variant:normal;font-weight:normal;font-stretch:normal;font-size:6.27689838px;line-height:1.25;font-family:sans-serif;-inkscape-font-specification:Normal;letter-spacing:0px;word-spacing:0px;fill:#000000;fill-opacity:1;stroke:none;stroke-width:0.15692246"
       id="text823">
      <path
         d="m 110.33244,100.46822 c 0.006,-0.26991 0,-0.583751 -0.0628,-0.834827 -0.0377,-0.1632 -0.10671,-0.301291 -0.21969,-0.382891 -0.0502,-0.03766 -0.10043,-0.05649 -0.15692,-0.05649 -0.0753,0 -0.15065,0.03766 -0.19459,0.10043 -0.0439,0.06277 -0.0565,0.131815 -0.0377,0.200861 0.0126,0.06277 0.0502,0.112984 0.10671,0.156923 0.18831,0.138091 0.32012,0.332675 0.37661,0.552366 0.0188,0.0753 0.0314,0.15692 0.0314,0.23225 0,0.57119 -0.21969,1.14867 -0.71557,1.14867 -0.35151,0 -0.62141,-0.23852 -0.7595,-0.56492 0.0377,-0.17576 0.0565,-0.36406 0.0502,-0.55237 0,-0.0565 0,-0.11298 -0.0125,-0.1632 -0.0251,-0.0941 -0.0753,-0.1632 -0.1632,-0.1632 -0.11926,0 -0.13809,0.15692 -0.13809,0.29502 0,0.19458 0.0188,0.38289 0.0628,0.56492 -0.12553,0.33895 -0.36406,0.58375 -0.70928,0.58375 -0.3829,0 -0.62769,-0.31385 -0.72185,-0.70929 -0.0314,-0.12554 -0.0502,-0.26991 -0.0565,-0.408 0,-0.37661 0.13809,-0.72812 0.29501,-1.060795 0.0126,-0.02511 0.0188,-0.05649 0.0126,-0.0816 -0.0126,-0.03766 -0.0439,-0.06905 -0.0816,-0.08788 -0.0188,-0.01255 -0.0377,-0.01255 -0.0565,-0.01255 -0.0377,0 -0.0753,0.01883 -0.10043,0.05649 -0.16948,0.357783 -0.22597,0.759503 -0.22597,1.154953 0,0.23852 0.0251,0.48332 0.0816,0.70301 0.12554,0.50843 0.408,0.89759 0.88504,0.89759 0.39544,0 0.6528,-0.27618 0.79089,-0.66535 0.16948,0.38917 0.45821,0.66535 0.87876,0.66535 0.6528,0 0.84739,-0.80971 0.84111,-1.56922 z"
         style="font-style:normal;font-variant:normal;font-weight:normal;font-stretch:normal;font-family:'Latin Modern Math';-inkscape-font-specification:'Latin Modern Math';stroke-width:0.15692246"
         id="path5174" />
    </g>
    <g
       aria-label="ðœŽð‘Ÿðœƒ(r,0) = ðœŽðœƒðœƒ(r,0) = 0"
       style="font-style:normal;font-variant:normal;font-weight:normal;font-stretch:normal;font-size:6.7530179px;line-height:1.25;font-family:Symbola;-inkscape-font-specification:Symbola;letter-spacing:0px;word-spacing:0px;fill:#000000;fill-opacity:1;stroke:none;stroke-width:0.16882543"
       id="text4531">
      <path
         d="m 39.434625,98.876955 c 0,-0.129658 -0.113451,-0.129658 -0.210694,-0.129658 H 37.99218 c -0.815764,0 -1.415432,0.891398 -1.415432,1.534283 0,0.47541 0.318742,0.85358 0.810362,0.85358 0.637485,0 1.356006,-0.65369 1.356006,-1.48566 0,-0.09184 0,-0.351157 -0.167475,-0.588863 h 0.594266 c 0.07023,0 0.264718,0 0.264718,-0.183682 z m -1.037264,0.707716 c 0,0.253913 -0.108048,0.696909 -0.29173,0.972439 -0.210694,0.31874 -0.502424,0.4592 -0.713119,0.4592 -0.264718,0 -0.480814,-0.19449 -0.480814,-0.58346 0,-0.16207 0.06483,-0.605071 0.253913,-0.923813 0.226901,-0.372767 0.551046,-0.4484 0.734728,-0.4484 0.453803,0 0.497022,0.356559 0.497022,0.524034 z"
         style="font-style:normal;font-variant:normal;font-weight:normal;font-stretch:normal;font-size:5.40241385px;font-family:'Latin Modern Math';-inkscape-font-specification:'Latin Modern Math';stroke-width:0.16882543"
         id="path5097" />
      <path
         d="m 40.983564,100.83236 c 0,-0.12291 -0.11237,-0.22825 -0.29146,-0.22825 -0.228252,0 -0.382761,0.17206 -0.449481,0.27039 -0.02809,-0.15802 -0.154509,-0.27039 -0.319552,-0.27039 -0.161533,0 -0.228252,0.13695 -0.259856,0.20016 -0.06321,0.11939 -0.108859,0.33008 -0.108859,0.34062 0,0.0351 0.04214,0.0351 0.04214,0.0351 0.03512,0 0.03863,-0.004 0.0597,-0.0808 0.0597,-0.24932 0.129928,-0.41788 0.256345,-0.41788 0.0597,0 0.108859,0.0281 0.108859,0.16153 0,0.0738 -0.01053,0.11237 -0.05619,0.29497 l -0.203671,0.81118 c -0.01053,0.0527 -0.0316,0.13344 -0.0316,0.15099 0,0.0632 0.04916,0.0948 0.101836,0.0948 0.04214,0 0.105347,-0.0281 0.129928,-0.0983 0.007,-0.014 0.126416,-0.49162 0.140463,-0.55482 l 0.11237,-0.45651 c 0.01405,-0.0456 0.11237,-0.21069 0.196648,-0.28795 0.02809,-0.0246 0.129928,-0.11588 0.280925,-0.11588 0.0913,0 0.147486,0.0421 0.147486,0.0421 -0.105347,0.0176 -0.182601,0.10184 -0.182601,0.19314 0,0.0562 0.03863,0.1229 0.133439,0.1229 0.09481,0 0.193136,-0.0808 0.193136,-0.20718 z"
         style="font-style:normal;font-variant:normal;font-weight:normal;font-stretch:normal;font-size:3.51156902px;font-family:'Latin Modern Math';-inkscape-font-specification:'Latin Modern Math';baseline-shift:sub;stroke-width:0.16882543"
         id="path5099" />
      <path
         d="m 42.634605,100.40044 c 0,-0.23177 -0.06321,-0.719876 -0.421388,-0.719876 -0.488108,0 -1.02889,0.990266 -1.02889,1.794416 0,0.33008 0.101836,0.71987 0.421389,0.71987 0.495131,0 1.028889,-1.00782 1.028889,-1.79441 z m -0.231763,-0.21772 c 0,0.17206 -0.02809,0.35115 -0.11237,0.6988 h -0.733918 c 0.0597,-0.22474 0.129928,-0.50567 0.27039,-0.75499 0.09481,-0.172064 0.224741,-0.368712 0.382761,-0.368712 0.172067,0 0.193137,0.22474 0.193137,0.424902 z m -0.143975,0.81117 c -0.03863,0.16153 -0.11237,0.46002 -0.245809,0.71285 -0.122905,0.23879 -0.256345,0.41085 -0.407342,0.41085 -0.115882,0 -0.189625,-0.10183 -0.189625,-0.42841 0,-0.14748 0.02107,-0.35116 0.11237,-0.69529 z"
         style="font-style:normal;font-variant:normal;font-weight:normal;font-stretch:normal;font-size:3.51156902px;font-family:'Latin Modern Math';-inkscape-font-specification:'Latin Modern Math';baseline-shift:sub;stroke-width:0.16882543"
         id="path5101" />
      <path
         d="m 44.476491,102.36151 c 0,-0.0162 -0.01081,-0.0324 -0.02161,-0.0432 -0.561851,-0.42139 -0.934617,-1.50187 -0.934617,-2.366255 v -0.453803 c 0,-0.864386 0.372766,-1.944869 0.934617,-2.366257 0.0108,-0.0108 0.02161,-0.02701 0.02161,-0.04322 0,-0.02701 -0.02701,-0.05403 -0.05402,-0.05403 -0.0108,0 -0.02161,0.0054 -0.03242,0.01081 -0.594265,0.448401 -1.161519,1.528883 -1.161519,2.452696 v 0.453803 c 0,0.923815 0.567254,2.004295 1.161519,2.452695 0.01081,0.005 0.02161,0.0108 0.03242,0.0108 0.02701,0 0.05402,-0.027 0.05402,-0.054 z"
         style="font-style:normal;font-variant:normal;font-weight:normal;font-stretch:normal;font-size:5.40241385px;font-family:'Latin Modern Math';-inkscape-font-specification:'Latin Modern Math';stroke-width:0.16882543"
         id="path5103" />
      <path
         d="m 46.749134,99.017417 c 0,-0.172877 -0.167474,-0.329547 -0.399778,-0.329547 -0.394376,0 -0.588863,0.361962 -0.664497,0.594266 V 98.68787 l -0.750936,0.05943 v 0.167474 c 0.378169,0 0.421389,0.03782 0.421389,0.302536 v 1.447843 c 0,0.24311 -0.05943,0.24311 -0.421389,0.24311 v 0.16748 l 0.615875,-0.0162 c 0.216097,0 0.47001,0 0.686107,0.0162 v -0.16748 h -0.113451 c -0.399778,0 -0.410583,-0.0594 -0.410583,-0.25391 v -0.831973 c 0,-0.534839 0.226901,-1.015654 0.637485,-1.015654 0.03782,0 0.04862,0 0.05943,0.0054 -0.01621,0.0054 -0.124255,0.07023 -0.124255,0.210694 0,0.151267 0.11345,0.232304 0.232304,0.232304 0.09724,0 0.232303,-0.06483 0.232303,-0.237707 z"
         style="font-style:normal;font-variant:normal;font-weight:normal;font-stretch:normal;font-size:5.40241385px;font-family:'Latin Modern Math';-inkscape-font-specification:'Latin Modern Math';stroke-width:0.16882543"
         id="path5105" />
      <path
         d="m 48.000215,101.07033 c 0,-0.35655 -0.13506,-0.56725 -0.345754,-0.56725 -0.17828,0 -0.286328,0.13506 -0.286328,0.28633 0,0.14586 0.108048,0.28633 0.286328,0.28633 0.06483,0 0.13506,-0.0216 0.189084,-0.0702 0.01621,-0.0108 0.02701,-0.0162 0.02701,-0.0162 0,0 0.01081,0.005 0.01081,0.081 0,0.39978 -0.189084,0.72393 -0.367364,0.90221 -0.05943,0.0594 -0.05943,0.0702 -0.05943,0.0864 0,0.0378 0.02701,0.0594 0.05402,0.0594 0.05943,0 0.491619,-0.41598 0.491619,-1.04807 z"
         style="font-style:normal;font-variant:normal;font-weight:normal;font-stretch:normal;font-size:5.40241385px;font-family:'Latin Modern Math';-inkscape-font-specification:'Latin Modern Math';stroke-width:0.16882543"
         id="path5107" />
      <path
         d="m 50.886961,99.346965 c 0,-0.432194 -0.02701,-0.864387 -0.216096,-1.264165 -0.248512,-0.518632 -0.691509,-0.605071 -0.918411,-0.605071 -0.324145,0 -0.718521,0.140463 -0.94002,0.642888 -0.172877,0.372766 -0.199889,0.794154 -0.199889,1.226348 0,0.405181 0.02161,0.891395 0.243108,1.301985 0.232304,0.43759 0.62668,0.54564 0.891399,0.54564 0.29173,0 0.702314,-0.11345 0.94002,-0.62668 0.172877,-0.37277 0.199889,-0.794155 0.199889,-1.220945 z m -0.4484,-0.06483 c 0,0.405181 0,0.772544 -0.05943,1.118304 -0.08104,0.51322 -0.388974,0.6753 -0.632082,0.6753 -0.210694,0 -0.529437,-0.13506 -0.62668,-0.6537 -0.05943,-0.32414 -0.05943,-0.821162 -0.05943,-1.139904 0,-0.345755 0,-0.702314 0.04322,-0.994045 0.102645,-0.642887 0.507826,-0.691509 0.642887,-0.691509 0.178279,0 0.534839,0.09724 0.637485,0.632083 0.05402,0.302535 0.05402,0.713119 0.05402,1.053471 z"
         style="font-style:normal;font-variant:normal;font-weight:normal;font-stretch:normal;font-size:5.40241385px;font-family:'Latin Modern Math';-inkscape-font-specification:'Latin Modern Math';stroke-width:0.16882543"
         id="path5109" />
      <path
         d="m 52.658953,99.952035 v -0.453803 c 0,-0.923813 -0.567253,-2.004295 -1.161519,-2.452696 -0.0108,-0.0054 -0.02161,-0.01081 -0.03241,-0.01081 -0.02701,0 -0.05403,0.02701 -0.05403,0.05403 0,0.01621 0.0108,0.03241 0.02161,0.04322 0.561851,0.421388 0.934618,1.501871 0.934618,2.366257 v 0.453803 c 0,0.864385 -0.372767,1.944865 -0.934618,2.366255 -0.01081,0.0108 -0.02161,0.027 -0.02161,0.0432 0,0.027 0.02701,0.054 0.05403,0.054 0.0108,0 0.02161,-0.005 0.03241,-0.0108 0.594266,-0.4484 1.161519,-1.52888 1.161519,-2.452695 z"
         style="font-style:normal;font-variant:normal;font-weight:normal;font-stretch:normal;font-size:5.40241385px;font-family:'Latin Modern Math';-inkscape-font-specification:'Latin Modern Math';stroke-width:0.16882543"
         id="path5111" />
      <path
         d="m 58.897136,99.201099 c 0,-0.05943 -0.04862,-0.108048 -0.108048,-0.108048 h -3.381911 c -0.05943,0 -0.108048,0.04862 -0.108048,0.108048 0,0.05943 0.04862,0.108049 0.108048,0.108049 h 3.381911 c 0.05943,0 0.108048,-0.04862 0.108048,-0.108049 z m 0,1.048071 c 0,-0.0594 -0.04862,-0.10805 -0.108048,-0.10805 h -3.381911 c -0.05943,0 -0.108048,0.0486 -0.108048,0.10805 0,0.0594 0.04862,0.10805 0.108048,0.10805 h 3.381911 c 0.05943,0 0.108048,-0.0486 0.108048,-0.10805 z"
         style="font-style:normal;font-variant:normal;font-weight:normal;font-stretch:normal;font-size:5.40241385px;font-family:'Latin Modern Math';-inkscape-font-specification:'Latin Modern Math';stroke-width:0.16882543"
         id="path5113" />
      <path
         d="m 64.053065,98.876955 c 0,-0.129658 -0.11345,-0.129658 -0.210694,-0.129658 h -1.23175 c -0.815765,0 -1.415432,0.891398 -1.415432,1.534283 0,0.47541 0.318742,0.85358 0.810362,0.85358 0.637484,0 1.356005,-0.65369 1.356005,-1.48566 0,-0.09184 0,-0.351157 -0.167474,-0.588863 h 0.594265 c 0.07023,0 0.264718,0 0.264718,-0.183682 z m -1.037263,0.707716 c 0,0.253913 -0.108048,0.696909 -0.29173,0.972439 -0.210695,0.31874 -0.502425,0.4592 -0.713119,0.4592 -0.264718,0 -0.480815,-0.19449 -0.480815,-0.58346 0,-0.16207 0.06483,-0.605071 0.253914,-0.923813 0.226901,-0.372767 0.551046,-0.4484 0.734728,-0.4484 0.453803,0 0.497022,0.356559 0.497022,0.524034 z"
         style="font-style:normal;font-variant:normal;font-weight:normal;font-stretch:normal;font-size:5.40241385px;font-family:'Latin Modern Math';-inkscape-font-specification:'Latin Modern Math';stroke-width:0.16882543"
         id="path5115" />
      <path
         d="m 65.668725,100.40044 c 0,-0.23177 -0.06321,-0.719876 -0.421388,-0.719876 -0.488108,0 -1.02889,0.990266 -1.02889,1.794416 0,0.33008 0.101835,0.71987 0.421388,0.71987 0.495131,0 1.02889,-1.00782 1.02889,-1.79441 z m -0.231764,-0.21772 c 0,0.17206 -0.02809,0.35115 -0.11237,0.6988 h -0.733918 c 0.0597,-0.22474 0.129928,-0.50567 0.270391,-0.75499 0.09481,-0.172064 0.22474,-0.368712 0.382761,-0.368712 0.172067,0 0.193136,0.22474 0.193136,0.424902 z m -0.143974,0.81117 c -0.03863,0.16153 -0.11237,0.46002 -0.24581,0.71285 -0.122905,0.23879 -0.256344,0.41085 -0.407342,0.41085 -0.115882,0 -0.189625,-0.10183 -0.189625,-0.42841 0,-0.14748 0.02107,-0.35116 0.112371,-0.69529 z"
         style="font-style:normal;font-variant:normal;font-weight:normal;font-stretch:normal;font-size:3.51156902px;font-family:'Latin Modern Math';-inkscape-font-specification:'Latin Modern Math';baseline-shift:sub;stroke-width:0.16882543"
         id="path5117" />
      <path
         d="m 67.314772,100.40044 c 0,-0.23177 -0.06321,-0.719876 -0.421388,-0.719876 -0.488108,0 -1.02889,0.990266 -1.02889,1.794416 0,0.33008 0.101836,0.71987 0.421389,0.71987 0.495131,0 1.028889,-1.00782 1.028889,-1.79441 z m -0.231763,-0.21772 c 0,0.17206 -0.02809,0.35115 -0.11237,0.6988 h -0.733918 c 0.0597,-0.22474 0.129928,-0.50567 0.270391,-0.75499 0.09481,-0.172064 0.22474,-0.368712 0.382761,-0.368712 0.172067,0 0.193136,0.22474 0.193136,0.424902 z m -0.143974,0.81117 c -0.03863,0.16153 -0.112371,0.46002 -0.24581,0.71285 -0.122905,0.23879 -0.256345,0.41085 -0.407342,0.41085 -0.115882,0 -0.189625,-0.10183 -0.189625,-0.42841 0,-0.14748 0.02107,-0.35116 0.11237,-0.69529 z"
         style="font-style:normal;font-variant:normal;font-weight:normal;font-stretch:normal;font-size:3.51156902px;font-family:'Latin Modern Math';-inkscape-font-specification:'Latin Modern Math';baseline-shift:sub;stroke-width:0.16882543"
         id="path5119" />
      <path
         d="m 69.156658,102.36151 c 0,-0.0162 -0.0108,-0.0324 -0.02161,-0.0432 -0.561851,-0.42139 -0.934618,-1.50187 -0.934618,-2.366255 v -0.453803 c 0,-0.864386 0.372767,-1.944869 0.934618,-2.366257 0.01081,-0.0108 0.02161,-0.02701 0.02161,-0.04322 0,-0.02701 -0.02701,-0.05403 -0.05402,-0.05403 -0.0108,0 -0.02161,0.0054 -0.03241,0.01081 -0.594266,0.448401 -1.161519,1.528883 -1.161519,2.452696 v 0.453803 c 0,0.923815 0.567253,2.004295 1.161519,2.452695 0.01081,0.005 0.02161,0.0108 0.03241,0.0108 0.02701,0 0.05402,-0.027 0.05402,-0.054 z"
         style="font-style:normal;font-variant:normal;font-weight:normal;font-stretch:normal;font-size:5.40241385px;font-family:'Latin Modern Math';-inkscape-font-specification:'Latin Modern Math';stroke-width:0.16882543"
         id="path5121" />
      <path
         d="m 71.429301,99.017417 c 0,-0.172877 -0.167475,-0.329547 -0.399779,-0.329547 -0.394376,0 -0.588863,0.361962 -0.664497,0.594266 V 98.68787 l -0.750935,0.05943 v 0.167474 c 0.378169,0 0.421388,0.03782 0.421388,0.302536 v 1.447843 c 0,0.24311 -0.05943,0.24311 -0.421388,0.24311 v 0.16748 l 0.615875,-0.0162 c 0.216096,0 0.47001,0 0.686106,0.0162 v -0.16748 h -0.11345 c -0.399779,0 -0.410584,-0.0594 -0.410584,-0.25391 v -0.831973 c 0,-0.534839 0.226902,-1.015654 0.637485,-1.015654 0.03782,0 0.04862,0 0.05943,0.0054 -0.01621,0.0054 -0.124256,0.07023 -0.124256,0.210694 0,0.151267 0.113451,0.232304 0.232304,0.232304 0.09724,0 0.232304,-0.06483 0.232304,-0.237707 z"
         style="font-style:normal;font-variant:normal;font-weight:normal;font-stretch:normal;font-size:5.40241385px;font-family:'Latin Modern Math';-inkscape-font-specification:'Latin Modern Math';stroke-width:0.16882543"
         id="path5123" />
      <path
         d="m 72.680384,101.07033 c 0,-0.35655 -0.13506,-0.56725 -0.345754,-0.56725 -0.17828,0 -0.286328,0.13506 -0.286328,0.28633 0,0.14586 0.108048,0.28633 0.286328,0.28633 0.06483,0 0.13506,-0.0216 0.189084,-0.0702 0.01621,-0.0108 0.02701,-0.0162 0.02701,-0.0162 0,0 0.0108,0.005 0.0108,0.081 0,0.39978 -0.189084,0.72393 -0.367364,0.90221 -0.05943,0.0594 -0.05943,0.0702 -0.05943,0.0864 0,0.0378 0.02701,0.0594 0.05402,0.0594 0.05943,0 0.491619,-0.41598 0.491619,-1.04807 z"
         style="font-style:normal;font-variant:normal;font-weight:normal;font-stretch:normal;font-size:5.40241385px;font-family:'Latin Modern Math';-inkscape-font-specification:'Latin Modern Math';stroke-width:0.16882543"
         id="path5125" />
      <path
         d="m 75.56713,99.346965 c 0,-0.432194 -0.02701,-0.864387 -0.216096,-1.264165 -0.248511,-0.518632 -0.691509,-0.605071 -0.918411,-0.605071 -0.324145,0 -0.718521,0.140463 -0.94002,0.642888 -0.172877,0.372766 -0.199889,0.794154 -0.199889,1.226348 0,0.405181 0.02161,0.891395 0.243109,1.301985 0.232303,0.43759 0.62668,0.54564 0.891398,0.54564 0.29173,0 0.702314,-0.11345 0.94002,-0.62668 0.172877,-0.37277 0.199889,-0.794155 0.199889,-1.220945 z m -0.4484,-0.06483 c 0,0.405181 0,0.772544 -0.05943,1.118304 -0.08104,0.51322 -0.388974,0.6753 -0.632082,0.6753 -0.210694,0 -0.529437,-0.13506 -0.62668,-0.6537 -0.05943,-0.32414 -0.05943,-0.821162 -0.05943,-1.139904 0,-0.345755 0,-0.702314 0.04322,-0.994045 0.102645,-0.642887 0.507827,-0.691509 0.642887,-0.691509 0.17828,0 0.534839,0.09724 0.637485,0.632083 0.05402,0.302535 0.05402,0.713119 0.05402,1.053471 z"
         style="font-style:normal;font-variant:normal;font-weight:normal;font-stretch:normal;font-size:5.40241385px;font-family:'Latin Modern Math';-inkscape-font-specification:'Latin Modern Math';stroke-width:0.16882543"
         id="path5127" />
      <path
         d="m 77.339121,99.952035 v -0.453803 c 0,-0.923813 -0.567253,-2.004295 -1.161519,-2.452696 -0.0108,-0.0054 -0.02161,-0.01081 -0.03241,-0.01081 -0.02701,0 -0.05402,0.02701 -0.05402,0.05403 0,0.01621 0.0108,0.03241 0.02161,0.04322 0.561851,0.421388 0.934618,1.501871 0.934618,2.366257 v 0.453803 c 0,0.864385 -0.372767,1.944865 -0.934618,2.366255 -0.01081,0.0108 -0.02161,0.027 -0.02161,0.0432 0,0.027 0.02701,0.054 0.05402,0.054 0.0108,0 0.02161,-0.005 0.03241,-0.0108 0.594266,-0.4484 1.161519,-1.52888 1.161519,-2.452695 z"
         style="font-style:normal;font-variant:normal;font-weight:normal;font-stretch:normal;font-size:5.40241385px;font-family:'Latin Modern Math';-inkscape-font-specification:'Latin Modern Math';stroke-width:0.16882543"
         id="path5129" />
      <path
         d="m 83.577304,99.201099 c 0,-0.05943 -0.04862,-0.108048 -0.108048,-0.108048 h -3.381911 c -0.05943,0 -0.108048,0.04862 -0.108048,0.108048 0,0.05943 0.04862,0.108049 0.108048,0.108049 h 3.381911 c 0.05943,0 0.108048,-0.04862 0.108048,-0.108049 z m 0,1.048071 c 0,-0.0594 -0.04862,-0.10805 -0.108048,-0.10805 h -3.381911 c -0.05943,0 -0.108048,0.0486 -0.108048,0.10805 0,0.0594 0.04862,0.10805 0.108048,0.10805 h 3.381911 c 0.05943,0 0.108048,-0.0486 0.108048,-0.10805 z"
         style="font-style:normal;font-variant:normal;font-weight:normal;font-stretch:normal;font-size:5.40241385px;font-family:'Latin Modern Math';-inkscape-font-specification:'Latin Modern Math';stroke-width:0.16882543"
         id="path5131" />
      <path
         d="m 88.155173,99.346965 c 0,-0.432194 -0.02701,-0.864387 -0.216096,-1.264165 -0.248511,-0.518632 -0.691509,-0.605071 -0.918411,-0.605071 -0.324144,0 -0.718521,0.140463 -0.94002,0.642888 -0.172877,0.372766 -0.199889,0.794154 -0.199889,1.226348 0,0.405181 0.02161,0.891395 0.243109,1.301985 0.232304,0.43759 0.62668,0.54564 0.891398,0.54564 0.29173,0 0.702314,-0.11345 0.94002,-0.62668 0.172877,-0.37277 0.199889,-0.794155 0.199889,-1.220945 z m -0.4484,-0.06483 c 0,0.405181 0,0.772544 -0.05943,1.118304 -0.08104,0.51322 -0.388973,0.6753 -0.632082,0.6753 -0.210694,0 -0.529436,-0.13506 -0.62668,-0.6537 -0.05943,-0.32414 -0.05943,-0.821162 -0.05943,-1.139904 0,-0.345755 0,-0.702314 0.04322,-0.994045 0.102646,-0.642887 0.507827,-0.691509 0.642887,-0.691509 0.17828,0 0.534839,0.09724 0.637485,0.632083 0.05402,0.302535 0.05402,0.713119 0.05402,1.053471 z"
         style="font-style:normal;font-variant:normal;font-weight:normal;font-stretch:normal;font-size:5.40241385px;font-family:'Latin Modern Math';-inkscape-font-specification:'Latin Modern Math';stroke-width:0.16882543"
         id="path5133" />
    </g>
    <path
       inkscape:connector-curvature="0"
       id="path4595"
       d="m 170.10201,95.607038 -3.14984,-5.455681"
       style="fill:none;stroke:#000000;stroke-width:0.26458332px;stroke-linecap:butt;stroke-linejoin:miter;stroke-opacity:1" />
    <path
       style="fill:none;stroke:#000000;stroke-width:0.26458332px;stroke-linecap:butt;stroke-linejoin:miter;stroke-opacity:1"
       d="m 166.45845,95.607038 -3.14984,-5.455681"
       id="path4597"
       inkscape:connector-curvature="0" />
    <path
       inkscape:connector-curvature="0"
       id="path4599"
       d="m 162.81489,95.607038 -3.14984,-5.455681"
       style="fill:none;stroke:#000000;stroke-width:0.26458332px;stroke-linecap:butt;stroke-linejoin:miter;stroke-opacity:1" />
    <path
       style="fill:none;stroke:#000000;stroke-width:0.26458332px;stroke-linecap:butt;stroke-linejoin:miter;stroke-opacity:1"
       d="m 159.17133,95.607038 -3.14984,-5.455681"
       id="path4601"
       inkscape:connector-curvature="0" />
    <path
       inkscape:connector-curvature="0"
       id="path4603"
       d="m 155.52778,95.607038 -3.14984,-5.455681"
       style="fill:none;stroke:#000000;stroke-width:0.26458332px;stroke-linecap:butt;stroke-linejoin:miter;stroke-opacity:1" />
    <path
       style="fill:none;stroke:#000000;stroke-width:0.26458332px;stroke-linecap:butt;stroke-linejoin:miter;stroke-opacity:1"
       d="m 151.88422,95.607038 -3.14984,-5.455681"
       id="path4605"
       inkscape:connector-curvature="0" />
    <path
       inkscape:connector-curvature="0"
       id="path4607"
       d="m 148.24066,95.607038 -3.14984,-5.455681"
       style="fill:none;stroke:#000000;stroke-width:0.26458332px;stroke-linecap:butt;stroke-linejoin:miter;stroke-opacity:1" />
    <path
       style="fill:none;stroke:#000000;stroke-width:0.26458332px;stroke-linecap:butt;stroke-linejoin:miter;stroke-opacity:1"
       d="m 144.5971,95.607038 -3.14984,-5.455681"
       id="path4609"
       inkscape:connector-curvature="0" />
    <path
       inkscape:connector-curvature="0"
       id="path4611"
       d="M 140.95354,95.607038 137.8037,90.151357"
       style="fill:none;stroke:#000000;stroke-width:0.26458332px;stroke-linecap:butt;stroke-linejoin:miter;stroke-opacity:1" />
    <path
       style="fill:none;stroke:#000000;stroke-width:0.26458332px;stroke-linecap:butt;stroke-linejoin:miter;stroke-opacity:1"
       d="m 137.30998,95.607038 -3.14984,-5.455681"
       id="path4613"
       inkscape:connector-curvature="0" />
    <path
       inkscape:connector-curvature="0"
       id="path4615"
       d="m 133.66642,95.607038 -3.14984,-5.455681"
       style="fill:none;stroke:#000000;stroke-width:0.26458332px;stroke-linecap:butt;stroke-linejoin:miter;stroke-opacity:1" />
    <path
       style="fill:none;stroke:#000000;stroke-width:0.26458332px;stroke-linecap:butt;stroke-linejoin:miter;stroke-opacity:1"
       d="m 130.02286,95.607038 -3.14984,-5.455681"
       id="path4617"
       inkscape:connector-curvature="0" />
    <path
       inkscape:connector-curvature="0"
       id="path4619"
       d="m 126.3793,95.607038 -3.14984,-5.455681"
       style="fill:none;stroke:#000000;stroke-width:0.26458332px;stroke-linecap:butt;stroke-linejoin:miter;stroke-opacity:1" />
    <path
       style="fill:none;stroke:#000000;stroke-width:0.26458332px;stroke-linecap:butt;stroke-linejoin:miter;stroke-opacity:1"
       d="M 122.73574,95.607038 119.5859,90.151357"
       id="path4621"
       inkscape:connector-curvature="0" />
    <path
       inkscape:connector-curvature="0"
       id="path4623"
       d="m 119.09218,95.607038 -3.14984,-5.455681"
       style="fill:none;stroke:#000000;stroke-width:0.26458332px;stroke-linecap:butt;stroke-linejoin:miter;stroke-opacity:1" />
    <path
       style="fill:none;stroke:#000000;stroke-width:0.26458332px;stroke-linecap:butt;stroke-linejoin:miter;stroke-opacity:1"
       d="m 115.44862,95.607038 -3.14984,-5.455681"
       id="path4625"
       inkscape:connector-curvature="0" />
    <path
       inkscape:connector-curvature="0"
       id="path4627"
       d="m 111.80506,95.607038 -3.14984,-5.455681"
       style="fill:none;stroke:#000000;stroke-width:0.26458332px;stroke-linecap:butt;stroke-linejoin:miter;stroke-opacity:1" />
    <path
       style="fill:none;stroke:#000000;stroke-width:0.26458332px;stroke-linecap:butt;stroke-linejoin:miter;stroke-opacity:1"
       d="m 108.16151,95.607038 -3.14984,-5.455681"
       id="path4629"
       inkscape:connector-curvature="0" />
    <path
       inkscape:connector-curvature="0"
       id="path4631"
       d="m 104.51795,95.607038 -3.14984,-5.455681"
       style="fill:none;stroke:#000000;stroke-width:0.26458332px;stroke-linecap:butt;stroke-linejoin:miter;stroke-opacity:1" />
    <path
       style="fill:none;stroke:#000000;stroke-width:0.26458332px;stroke-linecap:butt;stroke-linejoin:miter;stroke-opacity:1"
       d="M 100.87439,95.607038 97.724547,90.151357"
       id="path4633"
       inkscape:connector-curvature="0" />
    <path
       inkscape:connector-curvature="0"
       id="path4635"
       d="m 97.230828,95.607038 -3.14984,-5.455681"
       style="fill:none;stroke:#000000;stroke-width:0.26458332px;stroke-linecap:butt;stroke-linejoin:miter;stroke-opacity:1" />
    <path
       style="fill:none;stroke:#000000;stroke-width:0.26458332px;stroke-linecap:butt;stroke-linejoin:miter;stroke-opacity:1"
       d="m 93.587269,95.607038 -3.14984,-5.455681"
       id="path4637"
       inkscape:connector-curvature="0" />
    <path
       inkscape:connector-curvature="0"
       id="path4639"
       d="M 89.94371,95.607038 86.79387,90.151357"
       style="fill:none;stroke:#000000;stroke-width:0.26458332px;stroke-linecap:butt;stroke-linejoin:miter;stroke-opacity:1" />
    <path
       style="fill:none;stroke:#000000;stroke-width:0.26458332px;stroke-linecap:butt;stroke-linejoin:miter;stroke-opacity:1"
       d="m 86.300151,95.607038 -3.14984,-5.455681"
       id="path4641"
       inkscape:connector-curvature="0" />
    <path
       inkscape:connector-curvature="0"
       id="path4643"
       d="m 82.656591,95.607038 -3.14984,-5.455681"
       style="fill:none;stroke:#000000;stroke-width:0.26458332px;stroke-linecap:butt;stroke-linejoin:miter;stroke-opacity:1" />
    <path
       style="fill:none;stroke:#000000;stroke-width:0.26458332px;stroke-linecap:butt;stroke-linejoin:miter;stroke-opacity:1"
       d="m 79.013032,95.607038 -3.14984,-5.455681"
       id="path4645"
       inkscape:connector-curvature="0" />
    <path
       inkscape:connector-curvature="0"
       id="path4647"
       d="m 75.369473,95.607038 -3.14984,-5.455681"
       style="fill:none;stroke:#000000;stroke-width:0.26458332px;stroke-linecap:butt;stroke-linejoin:miter;stroke-opacity:1" />
    <path
       style="fill:none;stroke:#000000;stroke-width:0.26458332px;stroke-linecap:butt;stroke-linejoin:miter;stroke-opacity:1"
       d="m 71.725914,95.607038 -3.14984,-5.455681"
       id="path4649"
       inkscape:connector-curvature="0" />
    <path
       inkscape:connector-curvature="0"
       id="path4651"
       d="m 68.082355,95.607038 -3.14984,-5.455681"
       style="fill:none;stroke:#000000;stroke-width:0.26458332px;stroke-linecap:butt;stroke-linejoin:miter;stroke-opacity:1" />
    <path
       style="fill:none;stroke:#000000;stroke-width:0.26458332px;stroke-linecap:butt;stroke-linejoin:miter;stroke-opacity:1"
       d="m 64.438796,95.607038 -3.14984,-5.455681"
       id="path4653"
       inkscape:connector-curvature="0" />
    <path
       inkscape:connector-curvature="0"
       id="path4655"
       d="m 60.795236,95.607038 -3.14984,-5.455681"
       style="fill:none;stroke:#000000;stroke-width:0.26458332px;stroke-linecap:butt;stroke-linejoin:miter;stroke-opacity:1" />
    <path
       style="fill:none;stroke:#000000;stroke-width:0.26458332px;stroke-linecap:butt;stroke-linejoin:miter;stroke-opacity:1"
       d="m 57.151677,95.607038 -3.14984,-5.455681"
       id="path4657"
       inkscape:connector-curvature="0" />
    <path
       inkscape:connector-curvature="0"
       id="path4659"
       d="m 53.508118,95.607038 -3.14984,-5.455681"
       style="fill:none;stroke:#000000;stroke-width:0.26458332px;stroke-linecap:butt;stroke-linejoin:miter;stroke-opacity:1" />
    <path
       style="fill:none;stroke:#000000;stroke-width:0.26458332px;stroke-linecap:butt;stroke-linejoin:miter;stroke-opacity:1"
       d="m 49.864559,95.607038 -3.14984,-5.455681"
       id="path4661"
       inkscape:connector-curvature="0" />
    <path
       inkscape:connector-curvature="0"
       id="path4663"
       d="M 46.221,95.607038 43.07116,90.151357"
       style="fill:none;stroke:#000000;stroke-width:0.26458332px;stroke-linecap:butt;stroke-linejoin:miter;stroke-opacity:1" />
    <path
       style="fill:none;stroke:#000000;stroke-width:0.26458332px;stroke-linecap:butt;stroke-linejoin:miter;stroke-opacity:1"
       d="M 42.57744,95.607038 39.4276,90.151357"
       id="path4665"
       inkscape:connector-curvature="0" />
    <path
       inkscape:connector-curvature="0"
       id="path4667"
       d="m 38.933881,95.607038 -3.14984,-5.455681"
       style="fill:none;stroke:#000000;stroke-width:0.26458332px;stroke-linecap:butt;stroke-linejoin:miter;stroke-opacity:1" />
    <path
       style="fill:none;stroke:#000000;stroke-width:0.26458332px;stroke-linecap:butt;stroke-linejoin:miter;stroke-opacity:1"
       d="m 35.290322,95.607038 -3.14984,-5.455681"
       id="path4669"
       inkscape:connector-curvature="0" />
    <g
       aria-label="âŸ¦urâŸ§ = SrÎ»/(2Âµ)"
       style="font-style:normal;font-variant:normal;font-weight:normal;font-stretch:normal;font-size:6.7530179px;line-height:1.25;font-family:Symbola;-inkscape-font-specification:Symbola;letter-spacing:0px;word-spacing:0px;fill:#000000;fill-opacity:1;stroke:none;stroke-width:0.16882543"
       id="text4677">
      <g
         aria-label="Î³"
         id="text106"
         style="font-style:normal;font-variant:normal;font-weight:normal;font-stretch:normal;font-size:3.7793px;line-height:1.25;font-family:'Latin Modern Math';-inkscape-font-specification:'Latin Modern Math';letter-spacing:0px;word-spacing:0px;stroke-width:0.0159511">
        <path
           d="m 142.48438,111.29858 c -0.0113,-0.0378 -0.0567,-0.0378 -0.0567,-0.0378 -0.0113,0 -0.034,0 -0.0378,0.0264 -0.10582,0.35903 -0.16251,0.73696 -0.2192,1.11867 -0.034,-0.11715 -0.1096,-0.40438 -0.3477,-0.77097 -0.14739,-0.23054 -0.34391,-0.41573 -0.60469,-0.41573 -0.47241,0 -0.59335,0.57446 -0.56689,0.69162 0.0113,0.0378 0.0453,0.0378 0.0831,0.0378 l 0.0113,-0.0189 c 0.0378,-0.43462 0.44974,-0.4384 0.49131,-0.4384 0.57067,0 0.77476,0.66138 0.85034,0.95994 0.0567,0.23054 0.0567,0.29479 0.0491,0.37038 -0.0151,0.27589 -0.0189,0.71428 0.004,0.81255 0.0113,0.0416 0.0378,0.068 0.068,0.068 0.0491,0 0.0567,-0.0831 0.0642,-0.22675 0.008,-0.31747 -0.0113,-0.53289 -0.0227,-0.65004 -0.004,-0.0491 -0.0113,-0.0983 -0.008,-0.1474 0.0265,-0.37415 0.1285,-0.93726 0.20409,-1.23583 0.0151,-0.0453 0.0416,-0.12849 0.0378,-0.14361 z"
           style="font-style:normal;font-variant:normal;font-weight:normal;font-stretch:normal;font-family:'Latin Modern Math';-inkscape-font-specification:'Latin Modern Math';stroke-width:0.0159511"
           id="path108" />
      </g>
      <path
         d="m 120.942,117.05937 c 0,-0.0594 -0.0486,-0.10805 -0.10805,-0.10805 h -0.4592 v -4.97022 h 0.4592 c 0.0594,0 0.10805,-0.0486 0.10805,-0.10805 0,-0.0594 -0.0486,-0.10805 -0.10805,-0.10805 h -1.3506 v 5.40241 h 1.3506 c 0.0594,0 0.10805,-0.0486 0.10805,-0.10804 z m -0.78335,-5.07827 v 4.97022 h -0.45921 v -4.97022 z"
         style="font-style:normal;font-variant:normal;font-weight:normal;font-stretch:normal;font-size:5.40241385px;font-family:'Latin Modern Math';-inkscape-font-specification:'Latin Modern Math';stroke-width:0.16882543"
         id="path5147" />
      <path
         d="m 123.95199,115.81681 v -0.16747 c -0.37817,0 -0.42139,-0.0378 -0.42139,-0.30254 v -1.91786 l -0.79415,0.0594 v 0.16748 c 0.37816,0 0.42138,0.0378 0.42138,0.30253 v 0.96163 c 0,0.47001 -0.25931,0.83737 -0.65369,0.83737 -0.4538,0 -0.47541,-0.25391 -0.47541,-0.53483 v -1.79361 l -0.79416,0.0594 v 0.16748 c 0.42139,0 0.42139,0.0162 0.42139,0.49702 v 0.81036 c 0,0.42139 0,0.91301 0.82117,0.91301 0.30253,0 0.54024,-0.15127 0.69691,-0.48622 v 0.48622 z"
         style="font-style:normal;font-variant:normal;font-weight:normal;font-stretch:normal;font-size:5.40241385px;font-family:'Latin Modern Math';-inkscape-font-specification:'Latin Modern Math';stroke-width:0.16882543"
         id="path5149" />
      <path
         d="m 125.34711,115.55939 c 0,-0.11237 -0.10886,-0.21421 -0.25985,-0.21421 -0.25635,0 -0.38277,0.23528 -0.43193,0.38627 v -0.38627 l -0.48811,0.0386 v 0.10886 c 0.24581,0 0.27391,0.0246 0.27391,0.19664 v 0.9411 c 0,0.15802 -0.0386,0.15802 -0.27391,0.15802 v 0.10886 l 0.40032,-0.0105 c 0.14047,0 0.30551,0 0.44597,0.0105 v -0.10886 h -0.0737 c -0.25986,0 -0.26688,-0.0386 -0.26688,-0.16504 v -0.54078 c 0,-0.34765 0.14749,-0.66018 0.41437,-0.66018 0.0246,0 0.0316,0 0.0386,0.004 -0.0105,0.004 -0.0808,0.0456 -0.0808,0.13695 0,0.0983 0.0737,0.15099 0.15099,0.15099 0.0632,0 0.151,-0.0421 0.151,-0.1545 z"
         style="font-style:normal;font-variant:normal;font-weight:normal;font-stretch:normal;font-size:64.99999762%;font-family:'Latin Modern Math';-inkscape-font-specification:'Latin Modern Math';baseline-shift:sub"
         id="path5151" />
      <path
         d="m 127.02497,111.765 h -1.3506 c -0.0594,0 -0.10805,0.0486 -0.10805,0.10805 0,0.0594 0.0486,0.10805 0.10805,0.10805 h 0.4592 v 4.97022 h -0.4592 c -0.0594,0 -0.10805,0.0486 -0.10805,0.10805 0,0.0594 0.0486,0.10804 0.10805,0.10804 h 1.3506 z m -0.2161,5.18632 h -0.4592 v -4.97022 h 0.4592 z"
         style="font-style:normal;font-variant:normal;font-weight:normal;font-stretch:normal;font-size:5.40241385px;font-family:'Latin Modern Math';-inkscape-font-specification:'Latin Modern Math';stroke-width:0.16882543"
         id="path5153" />
      <path
         d="m 133.35761,113.94217 c 0,-0.0594 -0.0486,-0.10805 -0.10805,-0.10805 h -3.38191 c -0.0594,0 -0.10805,0.0486 -0.10805,0.10805 0,0.0594 0.0486,0.10805 0.10805,0.10805 h 3.38191 c 0.0594,0 0.10805,-0.0486 0.10805,-0.10805 z m 0,1.04807 c 0,-0.0594 -0.0486,-0.10805 -0.10805,-0.10805 h -3.38191 c -0.0594,0 -0.10805,0.0486 -0.10805,0.10805 0,0.0594 0.0486,0.10805 0.10805,0.10805 h 3.38191 c 0.0594,0 0.10805,-0.0486 0.10805,-0.10805 z"
         style="font-style:normal;font-variant:normal;font-weight:normal;font-stretch:normal;font-size:5.40241385px;font-family:'Latin Modern Math';-inkscape-font-specification:'Latin Modern Math';stroke-width:0.16882543"
         id="path5155" />
      <path
         d="m 138.14618,114.81196 c 0,-0.54024 -0.35656,-0.98324 -0.81036,-1.09129 l -0.69151,-0.16747 c -0.33495,-0.081 -0.54565,-0.37277 -0.54565,-0.68611 0,-0.37817 0.29173,-0.70771 0.71312,-0.70771 0.9022,0 1.02106,0.88599 1.05347,1.1291 0.005,0.0324 0.005,0.0648 0.0648,0.0648 0.0702,0 0.0702,-0.027 0.0702,-0.12966 v -1.08588 c 0,-0.0918 0,-0.12966 -0.0594,-0.12966 -0.0378,0 -0.0432,0.005 -0.081,0.0702 l -0.18909,0.30794 c -0.16207,-0.15667 -0.38357,-0.37817 -0.86438,-0.37817 -0.59967,0 -1.05347,0.47541 -1.05347,1.04807 0,0.4484 0.28633,0.84277 0.70771,0.98864 0.0594,0.0216 0.33495,0.0864 0.71312,0.17828 0.14587,0.0378 0.30794,0.0756 0.45921,0.27552 0.11345,0.14046 0.16747,0.31874 0.16747,0.49702 0,0.38358 -0.27012,0.77255 -0.72392,0.77255 -0.15667,0 -0.56725,-0.027 -0.85358,-0.29173 -0.31334,-0.29173 -0.32955,-0.63749 -0.33495,-0.83197 -0.005,-0.054 -0.0486,-0.054 -0.0648,-0.054 -0.0702,0 -0.0702,0.0378 -0.0702,0.13506 v 1.08049 c 0,0.0918 0,0.12965 0.0594,0.12965 0.0378,0 0.0432,-0.0108 0.081,-0.0702 0,0 0.0162,-0.0216 0.19449,-0.30794 0.16747,0.18369 0.51323,0.37817 0.99404,0.37817 0.63208,0 1.06428,-0.52943 1.06428,-1.1237 z"
         style="font-style:normal;font-variant:normal;font-weight:normal;font-stretch:normal;font-size:5.40241385px;font-family:'Latin Modern Math';-inkscape-font-specification:'Latin Modern Math';stroke-width:0.16882543"
         id="path5157" />
      <path
         d="m 140.42405,113.75849 c 0,-0.17288 -0.16747,-0.32955 -0.39978,-0.32955 -0.39437,0 -0.58886,0.36197 -0.66449,0.59427 v -0.59427 l -0.75094,0.0594 v 0.16748 c 0.37817,0 0.42139,0.0378 0.42139,0.30253 v 1.44785 c 0,0.24311 -0.0594,0.24311 -0.42139,0.24311 v 0.16747 l 0.61588,-0.0162 c 0.21609,0 0.47001,0 0.6861,0.0162 v -0.16747 h -0.11345 c -0.39978,0 -0.41058,-0.0594 -0.41058,-0.25392 v -0.83197 c 0,-0.53484 0.2269,-1.01565 0.63748,-1.01565 0.0378,0 0.0486,0 0.0594,0.005 -0.0162,0.005 -0.12425,0.0702 -0.12425,0.21069 0,0.15127 0.11345,0.23231 0.2323,0.23231 0.0972,0 0.2323,-0.0648 0.2323,-0.23771 z"
         style="font-style:normal;font-variant:normal;font-weight:normal;font-stretch:normal;font-size:5.40241385px;font-family:'Latin Modern Math';-inkscape-font-specification:'Latin Modern Math';stroke-width:0.16882543"
         id="path5159" />
      <path
         d="m 144.86861,111.87305 c 0,-0.0594 -0.0486,-0.10805 -0.10804,-0.10805 -0.0486,0 -0.0864,0.027 -0.10265,0.0702 l -1.88544,5.18632 c -0.005,0.0108 -0.005,0.027 -0.005,0.0378 0,0.0594 0.0486,0.10804 0.10804,0.10804 0.0486,0 0.0864,-0.027 0.10265,-0.0702 l 1.88544,-5.18631 c 0.005,-0.0108 0.005,-0.027 0.005,-0.0378 z"
         style="font-style:normal;font-variant:normal;font-weight:normal;font-stretch:normal;font-size:5.40241385px;font-family:'Latin Modern Math';-inkscape-font-specification:'Latin Modern Math';stroke-width:0.16882543"
         id="path5163" />
      <path
         d="m 146.95935,117.10259 c 0,-0.0162 -0.0108,-0.0324 -0.0216,-0.0432 -0.56185,-0.42139 -0.93462,-1.50188 -0.93462,-2.36626 v -0.4538 c 0,-0.86439 0.37277,-1.94487 0.93462,-2.36626 0.0108,-0.0108 0.0216,-0.027 0.0216,-0.0432 0,-0.027 -0.027,-0.054 -0.054,-0.054 -0.0108,0 -0.0216,0.005 -0.0324,0.0108 -0.59426,0.4484 -1.16152,1.52888 -1.16152,2.4527 v 0.4538 c 0,0.92381 0.56726,2.00429 1.16152,2.45269 0.0108,0.005 0.0216,0.0108 0.0324,0.0108 0.027,0 0.054,-0.027 0.054,-0.054 z"
         style="font-style:normal;font-variant:normal;font-weight:normal;font-stretch:normal;font-size:5.40241385px;font-family:'Latin Modern Math';-inkscape-font-specification:'Latin Modern Math';stroke-width:0.16882543"
         id="path5165" />
      <path
         d="m 149.6912,114.87679 h -0.13506 c -0.027,0.16207 -0.0648,0.39978 -0.11886,0.48082 -0.0378,0.0432 -0.39437,0.0432 -0.51322,0.0432 h -0.97244 l 0.57266,-0.55644 c 0.84277,-0.74554 1.16692,-1.03727 1.16692,-1.57751 0,-0.61587 -0.48622,-1.04807 -1.14531,-1.04807 -0.61048,0 -1.01025,0.49703 -1.01025,0.97784 0,0.30254 0.27012,0.30254 0.28632,0.30254 0.0918,0 0.28093,-0.0648 0.28093,-0.28633 0,-0.14047 -0.0972,-0.28093 -0.28633,-0.28093 -0.0432,0 -0.054,0 -0.0702,0.005 0.12425,-0.35115 0.41599,-0.55104 0.72933,-0.55104 0.49161,0 0.72392,0.43759 0.72392,0.88059 0,0.43219 -0.27012,0.85899 -0.56725,1.19393 l -1.03727,1.15612 c -0.0594,0.0594 -0.0594,0.0702 -0.0594,0.19989 h 2.00429 z"
         style="font-style:normal;font-variant:normal;font-weight:normal;font-stretch:normal;font-size:5.40241385px;font-family:'Latin Modern Math';-inkscape-font-specification:'Latin Modern Math';stroke-width:0.16882543"
         id="path5167" />
      <path
         d="m 152.85161,115.81681 v -0.16747 c -0.38357,0 -0.42139,-0.0378 -0.42139,-0.31334 v -1.90165 l -0.79956,0.0594 v 0.16748 c 0.38358,0 0.42139,0.0378 0.42139,0.31334 v 0.94002 c 0,0.47541 -0.24851,0.84277 -0.64829,0.84277 -0.4484,0 -0.4646,-0.25931 -0.4646,-0.54024 v -1.78279 l -0.79956,0.0594 v 0.16748 c 0.38357,0 0.42139,0.0378 0.42139,0.31334 v 2.4689 c 0,0.25391 -0.0486,0.25391 -0.42139,0.25391 v 0.16748 l 0.61047,-0.0162 0.61047,0.0162 v -0.16748 c -0.37276,0 -0.42138,0 -0.42138,-0.25391 v -0.63748 c 0.081,0.0324 0.2323,0.0702 0.43759,0.0702 0.29713,0 0.53484,-0.14587 0.68611,-0.46461 h 0.005 v 0.46461 z"
         style="font-style:normal;font-variant:normal;font-weight:normal;font-stretch:normal;font-size:5.40241385px;font-family:'Latin Modern Math';-inkscape-font-specification:'Latin Modern Math';stroke-width:0.16882543"
         id="path5169" />
      <path
         d="m 154.52982,114.69311 v -0.4538 c 0,-0.92382 -0.56726,-2.0043 -1.16152,-2.4527 -0.0108,-0.005 -0.0216,-0.0108 -0.0324,-0.0108 -0.027,0 -0.054,0.027 -0.054,0.054 0,0.0162 0.0108,0.0324 0.0216,0.0432 0.56185,0.42139 0.93462,1.50187 0.93462,2.36626 v 0.4538 c 0,0.86438 -0.37277,1.94487 -0.93462,2.36626 -0.0108,0.0108 -0.0216,0.027 -0.0216,0.0432 0,0.027 0.027,0.054 0.054,0.054 0.0108,0 0.0216,-0.005 0.0324,-0.0108 0.59426,-0.4484 1.16152,-1.52888 1.16152,-2.45269 z"
         style="font-style:normal;font-variant:normal;font-weight:normal;font-stretch:normal;font-size:5.40241385px;font-family:'Latin Modern Math';-inkscape-font-specification:'Latin Modern Math';stroke-width:0.16882543"
         id="path5171" />
    </g>
    <g
       aria-label="âŸ¦uðœƒâŸ§ = 0"
       style="font-style:normal;font-variant:normal;font-weight:normal;font-stretch:normal;font-size:6.7530179px;line-height:1.25;font-family:Symbola;-inkscape-font-specification:Symbola;letter-spacing:0px;word-spacing:0px;fill:#000000;fill-opacity:1;stroke:none;stroke-width:0.16882543"
       id="text4711">
      <path
         d="m 127.74557,124.05191 c 0,-0.0594 -0.0486,-0.10805 -0.10804,-0.10805 h -0.45921 v -4.97022 h 0.45921 c 0.0594,0 0.10804,-0.0486 0.10804,-0.10805 0,-0.0594 -0.0486,-0.10804 -0.10804,-0.10804 h -1.35061 v 5.40241 h 1.35061 c 0.0594,0 0.10804,-0.0486 0.10804,-0.10805 z m -0.78335,-5.07827 v 4.97022 h -0.4592 v -4.97022 z"
         style="font-style:normal;font-variant:normal;font-weight:normal;font-stretch:normal;font-size:5.40241385px;font-family:'Latin Modern Math';-inkscape-font-specification:'Latin Modern Math';stroke-width:0.16882543"
         id="path5177" />
      <path
         d="m 130.75556,122.80936 v -0.16748 c -0.37817,0 -0.42139,-0.0378 -0.42139,-0.30253 v -1.91786 l -0.79415,0.0594 v 0.16747 c 0.37817,0 0.42139,0.0378 0.42139,0.30254 v 0.96163 c 0,0.47001 -0.25932,0.83737 -0.65369,0.83737 -0.45381,0 -0.47542,-0.25391 -0.47542,-0.53484 v -1.7936 l -0.79415,0.0594 v 0.16747 c 0.42139,0 0.42139,0.0162 0.42139,0.49702 v 0.81037 c 0,0.42138 0,0.913 0.82116,0.913 0.30254,0 0.54024,-0.15126 0.69691,-0.48621 v 0.48621 z"
         style="font-style:normal;font-variant:normal;font-weight:normal;font-stretch:normal;font-size:5.40241385px;font-family:'Latin Modern Math';-inkscape-font-specification:'Latin Modern Math';stroke-width:0.16882543"
         id="path5179" />
      <path
         d="m 132.47024,122.13406 c 0,-0.23177 -0.0632,-0.71988 -0.42139,-0.71988 -0.48811,0 -1.02889,0.99027 -1.02889,1.79442 0,0.33008 0.10184,0.71987 0.42139,0.71987 0.49513,0 1.02889,-1.00782 1.02889,-1.79441 z m -0.23177,-0.21772 c 0,0.17206 -0.0281,0.35115 -0.11237,0.6988 h -0.73391 c 0.0597,-0.22474 0.12992,-0.50567 0.27039,-0.75499 0.0948,-0.17206 0.22474,-0.36871 0.38276,-0.36871 0.17206,0 0.19313,0.22474 0.19313,0.4249 z m -0.14397,0.81117 c -0.0386,0.16153 -0.11237,0.46002 -0.24581,0.71285 -0.12291,0.23879 -0.25634,0.41085 -0.40734,0.41085 -0.11588,0 -0.18963,-0.10183 -0.18963,-0.42841 0,-0.14749 0.0211,-0.35116 0.11237,-0.69529 z"
         style="font-style:normal;font-variant:normal;font-weight:normal;font-stretch:normal;font-size:64.99999762%;font-family:'Latin Modern Math';-inkscape-font-specification:'Latin Modern Math';baseline-shift:sub"
         id="path5181" />
      <path
         d="m 134.09603,118.75755 h -1.35061 c -0.0594,0 -0.10805,0.0486 -0.10805,0.10804 0,0.0594 0.0486,0.10805 0.10805,0.10805 h 0.45921 v 4.97022 h -0.45921 c -0.0594,0 -0.10805,0.0486 -0.10805,0.10805 0,0.0594 0.0486,0.10805 0.10805,0.10805 h 1.35061 z m -0.2161,5.18631 h -0.45921 v -4.97022 h 0.45921 z"
         style="font-style:normal;font-variant:normal;font-weight:normal;font-stretch:normal;font-size:5.40241385px;font-family:'Latin Modern Math';-inkscape-font-specification:'Latin Modern Math';stroke-width:0.16882543"
         id="path5183" />
      <path
         d="m 140.42867,120.93472 c 0,-0.0594 -0.0486,-0.10805 -0.10805,-0.10805 h -3.38191 c -0.0594,0 -0.10805,0.0486 -0.10805,0.10805 0,0.0594 0.0486,0.10805 0.10805,0.10805 h 3.38191 c 0.0594,0 0.10805,-0.0486 0.10805,-0.10805 z m 0,1.04807 c 0,-0.0594 -0.0486,-0.10805 -0.10805,-0.10805 h -3.38191 c -0.0594,0 -0.10805,0.0486 -0.10805,0.10805 0,0.0594 0.0486,0.10805 0.10805,0.10805 h 3.38191 c 0.0594,0 0.10805,-0.0486 0.10805,-0.10805 z"
         style="font-style:normal;font-variant:normal;font-weight:normal;font-stretch:normal;font-size:5.40241385px;font-family:'Latin Modern Math';-inkscape-font-specification:'Latin Modern Math';stroke-width:0.16882543"
         id="path5185" />
      <path
         d="m 145.00654,121.08058 c 0,-0.43219 -0.027,-0.86438 -0.2161,-1.26416 -0.24851,-0.51863 -0.69151,-0.60507 -0.91841,-0.60507 -0.32414,0 -0.71852,0.14046 -0.94002,0.64289 -0.17287,0.37276 -0.19989,0.79415 -0.19989,1.22634 0,0.40519 0.0216,0.8914 0.24311,1.30199 0.23231,0.43759 0.62668,0.54564 0.8914,0.54564 0.29173,0 0.70231,-0.11345 0.94002,-0.62668 0.17288,-0.37277 0.19989,-0.79416 0.19989,-1.22095 z m -0.4484,-0.0648 c 0,0.40518 0,0.77254 -0.0594,1.11829 -0.081,0.51323 -0.38897,0.67531 -0.63208,0.67531 -0.21069,0 -0.52944,-0.13506 -0.62668,-0.6537 -0.0594,-0.32414 -0.0594,-0.82116 -0.0594,-1.1399 0,-0.34576 0,-0.70232 0.0432,-0.99405 0.10265,-0.64289 0.50783,-0.69151 0.64289,-0.69151 0.17828,0 0.53484,0.0972 0.63748,0.63208 0.054,0.30254 0.054,0.71312 0.054,1.05348 z"
         style="font-style:normal;font-variant:normal;font-weight:normal;font-stretch:normal;font-size:5.40241385px;font-family:'Latin Modern Math';-inkscape-font-specification:'Latin Modern Math';stroke-width:0.16882543"
         id="path5187" />
    </g>
    <g
       aria-label="Ï†A, ÏˆA"
       style="font-style:normal;font-variant:normal;font-weight:normal;font-stretch:normal;font-size:10.58333302px;line-height:1.25;font-family:Symbola;-inkscape-font-specification:Symbola;letter-spacing:0px;word-spacing:0px;fill:#000000;fill-opacity:1;stroke:none;stroke-width:0.26458332"
       id="text4717">
      <path
         d="m 66.34238,134.08771 c -0.201084,-0.8255 -0.772584,-1.4605 -1.566334,-1.4605 -1.534583,0 -1.661583,2.05316 -1.778,4.11691 -1.195916,-0.21166 -1.936749,-0.80433 -2.127249,-1.56633 -0.07408,-0.29633 -0.127,-1.4605 0.328083,-2.19075 0.0635,-0.0953 0.05292,-0.13758 0.05292,-0.13758 -0.01058,-0.0423 -0.05292,-0.10584 -0.15875,-0.10584 -0.296333,0 -0.719666,1.53459 -0.465666,2.55059 0.243417,0.99483 1.132416,1.76741 2.338916,2.032 l -0.127,1.778 c 0,0.13758 -0.01058,0.15875 0,0.21166 0.0635,0.23284 0.275167,0.29634 0.381,0.29634 0.05292,0 0.28575,-0.0318 0.328084,-0.27517 0.01058,-0.0847 -0.02117,-0.43392 -0.116417,-1.93675 0.09525,0.0106 0.179917,0.0212 0.359833,0.0212 1.756834,0 2.973917,-1.66159 2.550584,-3.33375 z m -0.232834,0.23283 c 0.296334,1.19592 -0.751416,2.48708 -2.38125,2.48708 -0.08467,0 -0.105833,0 -0.1905,-0.0106 -0.127,0 -0.137583,-0.0106 -0.148166,-0.0423 l -0.07408,-1.143 c -0.01058,-1.35467 0.560917,-2.37067 1.502834,-2.37067 0.73025,0 1.164166,0.5715 1.291166,1.0795 z"
         style="font-style:normal;font-variant:normal;font-weight:normal;font-stretch:normal;font-family:'Latin Modern Math';-inkscape-font-specification:'Latin Modern Math';stroke-width:0.26458332"
         id="path5136" />
      <path
         d="m 71.810523,139.42171 v -0.21326 h -0.123825 c -0.41275,0 -0.509058,-0.0481 -0.584729,-0.27517 l -1.4859,-4.29947 c -0.0344,-0.0894 -0.04815,-0.13759 -0.158221,-0.13759 -0.110066,0 -0.130704,0.0413 -0.1651,0.13759 l -1.423987,4.11374 c -0.123825,0.35083 -0.398992,0.45402 -0.770467,0.4609 v 0.21326 l 0.701675,-0.0206 0.791104,0.0206 v -0.21326 c -0.343958,0 -0.515937,-0.17198 -0.515937,-0.35084 0,-0.0206 0.0069,-0.0894 0.01376,-0.10318 l 0.316442,-0.90117 h 1.699154 l 0.364596,1.05251 c 0.0069,0.0275 0.02064,0.0688 0.02064,0.0963 0,0.20637 -0.385233,0.20637 -0.570971,0.20637 v 0.21326 c 0.24765,-0.0206 0.729192,-0.0206 0.9906,-0.0206 z M 70.028819,137.64 h -1.547812 l 0.770466,-2.23573 z"
         style="font-style:normal;font-variant:normal;font-weight:normal;font-stretch:normal;font-size:64.99999762%;font-family:'Latin Modern Math';-inkscape-font-specification:'Latin Modern Math';baseline-shift:sub"
         id="path5138" />
      <path
         d="m 74.185952,137.29446 c 0,-0.6985 -0.264583,-1.11125 -0.677333,-1.11125 -0.34925,0 -0.560917,0.26458 -0.560917,0.56091 0,0.28575 0.211667,0.56092 0.560917,0.56092 0.127,0 0.264583,-0.0423 0.370417,-0.13758 0.03175,-0.0212 0.05292,-0.0318 0.05292,-0.0318 0,0 0.02117,0.0106 0.02117,0.15875 0,0.78316 -0.370417,1.41816 -0.719667,1.76741 -0.116416,0.11642 -0.116416,0.13759 -0.116416,0.16934 0,0.0741 0.05292,0.11641 0.105833,0.11641 0.116417,0 0.963083,-0.81491 0.963083,-2.05316 z"
         style="font-style:normal;font-variant:normal;font-weight:normal;font-stretch:normal;font-family:'Latin Modern Math';-inkscape-font-specification:'Latin Modern Math';stroke-width:0.26458332"
         id="path5140" />
      <path
         d="m 84.79442,135.01904 c 0.03175,-0.26458 0.03175,-1.18533 -0.08467,-1.651 -0.148166,-0.59267 -0.465666,-0.74083 -0.645583,-0.74083 -0.264583,0 -0.465667,0.27516 -0.402167,0.508 0.03175,0.13758 0.105834,0.20108 0.22225,0.28575 0.148167,0.11641 0.486834,0.39158 0.613834,0.89958 0.169333,0.67733 -0.169334,1.54517 -0.4445,1.92617 -0.6985,0.94191 -1.375834,0.94191 -1.756834,0.94191 l 0.01058,-6.95325 c 0,-0.0423 0.01058,-0.10583 -0.01058,-0.15875 -0.02117,-0.10583 -0.09525,-0.11641 -0.148166,-0.11641 -0.105834,0 -0.116417,0.0212 -0.105834,0.21166 l -0.01058,6.99559 c -0.8255,-0.0952 -1.3335,-0.48684 -1.502833,-1.18534 -0.05292,-0.21166 -0.127,-0.48683 0.07408,-1.9685 0.01058,-0.127 0.04233,-0.30691 -0.01058,-0.51858 -0.116417,-0.47625 -0.550334,-0.86783 -1.0795,-0.86783 -1.005417,0 -1.016,1.53458 -0.994834,1.62983 0.03175,0.10583 0.15875,0.10583 0.15875,0.10583 0.105834,0 0.105834,-0.0212 0.116417,-0.1905 0.03175,-1.00541 0.381,-1.31233 0.740833,-1.31233 0.08467,0 0.264584,0 0.34925,0.33867 0.07408,0.27516 0.03175,0.53975 -0.01058,0.91016 -0.179917,1.3335 -0.105833,1.60867 -0.0635,1.78859 0.254,1.00541 1.185333,1.43933 2.211917,1.50283 0.01058,0.381 0.02117,0.40217 0.01058,0.96308 0,0.11642 0,0.97367 0.01058,1.00542 0,0 0.02117,0.10583 0.148167,0.10583 0,0 0.07408,0 0.08467,-0.0423 0.03175,-0.0212 0.02117,-0.28575 0.02117,-0.43392 l 0.01058,-1.57691 c 0.391583,0 1.322916,0 2.032,-1.13242 0.3175,-0.48683 0.423333,-0.9525 0.455083,-1.27 z"
         style="font-style:normal;font-variant:normal;font-weight:normal;font-stretch:normal;font-family:'Latin Modern Math';-inkscape-font-specification:'Latin Modern Math';stroke-width:0.26458332"
         id="path5142" />
      <path
         d="m 90.199065,139.42171 v -0.21326 H 90.07524 c -0.41275,0 -0.509059,-0.0481 -0.584729,-0.27517 l -1.4859,-4.29947 c -0.0344,-0.0894 -0.04815,-0.13759 -0.158221,-0.13759 -0.110067,0 -0.130704,0.0413 -0.1651,0.13759 l -1.423987,4.11374 c -0.123825,0.35083 -0.398992,0.45402 -0.770467,0.4609 v 0.21326 l 0.701675,-0.0206 0.791104,0.0206 v -0.21326 c -0.343958,0 -0.515937,-0.17198 -0.515937,-0.35084 0,-0.0206 0.0069,-0.0894 0.01376,-0.10318 l 0.316442,-0.90117 h 1.699154 l 0.364595,1.05251 c 0.0069,0.0275 0.02064,0.0688 0.02064,0.0963 0,0.20637 -0.385233,0.20637 -0.570971,0.20637 v 0.21326 c 0.24765,-0.0206 0.729192,-0.0206 0.9906,-0.0206 z M 88.417361,137.64 h -1.547813 l 0.770467,-2.23573 z"
         style="font-style:normal;font-variant:normal;font-weight:normal;font-stretch:normal;font-size:64.99999762%;font-family:'Latin Modern Math';-inkscape-font-specification:'Latin Modern Math';baseline-shift:sub"
         id="path5144" />
    </g>
    <g
       aria-label="Ï†B, ÏˆB"
       style="font-style:normal;font-variant:normal;font-weight:normal;font-stretch:normal;font-size:10.58333302px;line-height:1.25;font-family:Symbola;-inkscape-font-specification:Symbola;letter-spacing:0px;word-spacing:0px;fill:#000000;fill-opacity:1;stroke:none;stroke-width:0.26458332"
       id="text4729">
      <path
         d="m 148.32543,132.72699 c -0.20108,-0.8255 -0.77258,-1.4605 -1.56633,-1.4605 -1.53458,0 -1.66158,2.05316 -1.778,4.11691 -1.19592,-0.21166 -1.93675,-0.80433 -2.12725,-1.56633 -0.0741,-0.29633 -0.127,-1.4605 0.32808,-2.19075 0.0635,-0.0952 0.0529,-0.13758 0.0529,-0.13758 -0.0106,-0.0423 -0.0529,-0.10584 -0.15875,-0.10584 -0.29633,0 -0.71967,1.53459 -0.46567,2.55059 0.24342,0.99483 1.13242,1.76741 2.33892,2.032 l -0.127,1.778 c 0,0.13758 -0.0106,0.15875 0,0.21166 0.0635,0.23284 0.27517,0.29634 0.381,0.29634 0.0529,0 0.28575,-0.0317 0.32808,-0.27517 0.0106,-0.0847 -0.0212,-0.43392 -0.11641,-1.93675 0.0952,0.0106 0.17991,0.0212 0.35983,0.0212 1.75683,0 2.97392,-1.66159 2.55058,-3.33375 z m -0.23283,0.23283 c 0.29633,1.19592 -0.75142,2.48708 -2.38125,2.48708 -0.0847,0 -0.10583,0 -0.1905,-0.0106 -0.127,0 -0.13758,-0.0106 -0.14817,-0.0423 l -0.0741,-1.143 c -0.0106,-1.35467 0.56092,-2.37067 1.50283,-2.37067 0.73025,0 1.16417,0.5715 1.29117,1.0795 z"
         style="font-style:normal;font-variant:normal;font-weight:normal;font-stretch:normal;font-family:'Latin Modern Math';-inkscape-font-specification:'Latin Modern Math';stroke-width:0.26458332"
         id="path5190" />
      <path
         d="m 153.33955,136.8021 c 0,-0.59849 -0.56409,-1.11443 -1.32768,-1.19698 0.66728,-0.1307 1.14195,-0.57097 1.14195,-1.08002 0,-0.59849 -0.63289,-1.16258 -1.52718,-1.16258 h -2.51777 v 0.21325 h 0.1651 c 0.52969,0 0.54345,0.0757 0.54345,0.32332 v 3.62532 c 0,0.24765 -0.0138,0.32332 -0.54345,0.32332 h -0.1651 v 0.21326 h 2.69663 c 0.91493,0 1.53405,-0.61225 1.53405,-1.25889 z m -0.85301,-2.277 c 0,0.44026 -0.33708,1.01811 -1.10067,1.01811 h -0.99748 v -1.69227 c 0,-0.22701 0.0138,-0.27517 0.33708,-0.27517 h 0.85302 c 0.66728,0 0.90805,0.58473 0.90805,0.94933 z m 0.1651,2.27012 c 0,0.48842 -0.35772,1.05251 -1.06627,1.05251 h -0.8599 c -0.32332,0 -0.33708,-0.0482 -0.33708,-0.27516 v -1.87802 h 1.29328 c 0.68104,0 0.96997,0.63977 0.96997,1.10067 z"
         style="font-style:normal;font-variant:normal;font-weight:normal;font-stretch:normal;font-size:64.99999762%;font-family:'Latin Modern Math';-inkscape-font-specification:'Latin Modern Math';baseline-shift:sub"
         id="path5192" />
      <path
         d="m 155.88685,135.93374 c 0,-0.6985 -0.26458,-1.11125 -0.67733,-1.11125 -0.34925,0 -0.56092,0.26458 -0.56092,0.56091 0,0.28575 0.21167,0.56092 0.56092,0.56092 0.127,0 0.26458,-0.0423 0.37042,-0.13758 0.0318,-0.0212 0.0529,-0.0317 0.0529,-0.0317 0,0 0.0212,0.0106 0.0212,0.15875 0,0.78316 -0.37042,1.41816 -0.71967,1.76741 -0.11641,0.11642 -0.11641,0.13759 -0.11641,0.16934 0,0.0741 0.0529,0.11641 0.10583,0.11641 0.11642,0 0.96308,-0.81491 0.96308,-2.05316 z"
         style="font-style:normal;font-variant:normal;font-weight:normal;font-stretch:normal;font-family:'Latin Modern Math';-inkscape-font-specification:'Latin Modern Math';stroke-width:0.26458332"
         id="path5194" />
      <path
         d="m 166.49532,133.65832 c 0.0318,-0.26458 0.0318,-1.18533 -0.0847,-1.651 -0.14817,-0.59267 -0.46567,-0.74083 -0.64559,-0.74083 -0.26458,0 -0.46566,0.27516 -0.40216,0.508 0.0317,0.13758 0.10583,0.20108 0.22225,0.28575 0.14816,0.11641 0.48683,0.39158 0.61383,0.89958 0.16933,0.67733 -0.16933,1.54517 -0.4445,1.92617 -0.6985,0.94191 -1.37583,0.94191 -1.75683,0.94191 l 0.0106,-6.95325 c 0,-0.0423 0.0106,-0.10583 -0.0106,-0.15875 -0.0212,-0.10583 -0.0952,-0.11641 -0.14817,-0.11641 -0.10583,0 -0.11642,0.0212 -0.10583,0.21166 l -0.0106,6.99559 c -0.8255,-0.0952 -1.3335,-0.48684 -1.50283,-1.18534 -0.0529,-0.21166 -0.127,-0.48683 0.0741,-1.9685 0.0106,-0.127 0.0423,-0.30691 -0.0106,-0.51858 -0.11642,-0.47625 -0.55033,-0.86783 -1.0795,-0.86783 -1.00542,0 -1.016,1.53458 -0.99483,1.62983 0.0317,0.10583 0.15875,0.10583 0.15875,0.10583 0.10583,0 0.10583,-0.0212 0.11641,-0.1905 0.0317,-1.00541 0.381,-1.31233 0.74084,-1.31233 0.0847,0 0.26458,0 0.34925,0.33867 0.0741,0.27516 0.0317,0.53975 -0.0106,0.91016 -0.17991,1.3335 -0.10583,1.60867 -0.0635,1.78859 0.254,1.00541 1.18534,1.43933 2.21192,1.50283 0.0106,0.381 0.0212,0.40217 0.0106,0.96308 0,0.11642 0,0.97367 0.0106,1.00542 0,0 0.0212,0.10583 0.14816,0.10583 0,0 0.0741,0 0.0847,-0.0423 0.0317,-0.0212 0.0212,-0.28575 0.0212,-0.43392 l 0.0106,-1.57691 c 0.39158,0 1.32292,0 2.032,-1.13242 0.3175,-0.48683 0.42333,-0.9525 0.45508,-1.27 z"
         style="font-style:normal;font-variant:normal;font-weight:normal;font-stretch:normal;font-family:'Latin Modern Math';-inkscape-font-specification:'Latin Modern Math';stroke-width:0.26458332"
         id="path5196" />
      <path
         d="m 171.44594,136.8021 c 0,-0.59849 -0.56409,-1.11443 -1.32768,-1.19698 0.66728,-0.1307 1.14194,-0.57097 1.14194,-1.08002 0,-0.59849 -0.63288,-1.16258 -1.52717,-1.16258 h -2.51778 v 0.21325 h 0.1651 c 0.5297,0 0.54346,0.0757 0.54346,0.32332 v 3.62532 c 0,0.24765 -0.0138,0.32332 -0.54346,0.32332 h -0.1651 v 0.21326 h 2.69664 c 0.91493,0 1.53405,-0.61225 1.53405,-1.25889 z m -0.85302,-2.277 c 0,0.44026 -0.33707,1.01811 -1.10066,1.01811 h -0.99748 v -1.69227 c 0,-0.22701 0.0138,-0.27517 0.33708,-0.27517 h 0.85301 c 0.66728,0 0.90805,0.58473 0.90805,0.94933 z m 0.1651,2.27012 c 0,0.48842 -0.35771,1.05251 -1.06627,1.05251 h -0.85989 c -0.32332,0 -0.33708,-0.0482 -0.33708,-0.27516 v -1.87802 h 1.29328 c 0.68104,0 0.96996,0.63977 0.96996,1.10067 z"
         style="font-style:normal;font-variant:normal;font-weight:normal;font-stretch:normal;font-size:64.99999762%;font-family:'Latin Modern Math';-inkscape-font-specification:'Latin Modern Math';baseline-shift:sub"
         id="path5198" />
    </g>
    <circle
       style="fill:#1a1a1a;stroke-width:0.31624302;stroke-miterlimit:4;stroke-dasharray:none"
       id="path5307"
       cx="98.718597"
       cy="95.916664"
       r="0.76450044" />
  </g>
</svg>
